# xmcd CD database file
#
# Track frame offsets:
#	150
#	16400
#	35615
#	58967
#	78962
#	105185
#	133470
#	157255
#
# Disc length: 2531 seconds
#
# Revision: 0
# Processed by: cddbd v1.5.1PL0 Copyright (c) Steve Scherf et al.
# Submitted via: CDex 1.51
#
DISCID=6909e108
DTITLE=media youth - Jesus Christ Rock'n'Roll
DYEAR=1900
DGENRE=Instrumental Rock
TTITLE0=JESUS CHRIST ROCK'N'ROLL
TTITLE1=罪と罰
TTITLE2=DARK
TTITLE3=LAST FOR "THE COUNT ZERO"
TTITLE4=SUN WARD
TTITLE5=STAY
TTITLE6=DEAR MY CALL GIRL
TTITLE7=NO RIPCORD BUTTER-FLY
EXTD=
EXTT0=
EXTT1=
EXTT2=
EXTT3=
EXTT4=
EXTT5=
EXTT6=
EXTT7=
PLAYORDER=
